<svg width="55" height="47" viewBox="0 0 55 47" fill="none" xmlns="http://www.w3.org/2000/svg">
<path d="M0 0V4.23077H32.6562V35.9615H22.0756C21.3091 32.3252 18.6519 29.6154 15.4688 29.6154C12.2856 29.6154 9.62844 32.3252 8.86188 35.9615H6.875V25.3846H3.4375V40.1923H8.86188C9.62844 43.8287 12.2856 46.5385 15.4688 46.5385C18.6519 46.5385 21.3091 43.8287 22.0756 40.1923H36.3619C37.1284 43.8287 39.7856 46.5385 42.9688 46.5385C46.1519 46.5385 48.8091 43.8287 49.5756 40.1923H55V22.9392L54.8917 22.6071L51.4542 9.91481L51.0812 8.46154H36.0938V0H0ZM1.71875 8.46154V12.6923H17.1875V8.46154H1.71875ZM36.0938 12.6923H48.608L51.5625 23.5337V35.9615H49.5756C48.8091 32.3252 46.1519 29.6154 42.9688 29.6154C39.7856 29.6154 37.1284 32.3252 36.3619 35.9615H36.0938V12.6923ZM3.4375 16.9231V21.1538H13.75V16.9231H3.4375ZM15.4688 33.8462C17.3886 33.8462 18.9062 35.714 18.9062 38.0769C18.9062 40.4398 17.3886 42.3077 15.4688 42.3077C13.5489 42.3077 12.0312 40.4398 12.0312 38.0769C12.0312 35.714 13.5489 33.8462 15.4688 33.8462ZM42.9688 33.8462C44.8886 33.8462 46.4062 35.714 46.4062 38.0769C46.4062 40.4398 44.8886 42.3077 42.9688 42.3077C41.0489 42.3077 39.5312 40.4398 39.5312 38.0769C39.5312 35.714 41.0489 33.8462 42.9688 33.8462Z" fill="#754F23"/>
</svg>
