<svg width="24" height="24" viewBox="0 0 24 24" fill="none" xmlns="http://www.w3.org/2000/svg">
<g id="gift_alt_light">
<rect id="Rectangle 4212" x="3.50098" y="9.5" width="17" height="3" rx="1.5" stroke="#3F3222" stroke-linecap="round"/>
<path id="Vector 401" d="M5.50098 12.5V18.3C5.50098 19.4201 5.50098 19.9802 5.71896 20.408C5.91071 20.7843 6.21667 21.0903 6.593 21.282C7.02082 21.5 7.58087 21.5 8.70098 21.5H15.301C16.4211 21.5 16.9811 21.5 17.409 21.282C17.7853 21.0903 18.0912 20.7843 18.283 20.408C18.501 19.9802 18.501 19.4201 18.501 18.3V12.5" stroke="#3F3222" stroke-linecap="round"/>
<path id="Vector 402" d="M12.501 6.5V9.5H9.50098C7.84412 9.5 6.50098 8.15685 6.50098 6.5C6.50098 4.84315 7.84412 3.5 9.50098 3.5C11.1578 3.5 12.501 4.84315 12.501 6.5Z" stroke="#3F3222" stroke-linecap="round"/>
<path id="Vector 403" d="M12.501 7.5V9.5H14.501C15.6055 9.5 16.501 8.60457 16.501 7.5C16.501 6.39543 15.6055 5.5 14.501 5.5C13.3964 5.5 12.501 6.39543 12.501 7.5Z" stroke="#3F3222" stroke-linecap="round"/>
<path id="Vector 404" d="M12.501 9.5V21.5" stroke="#3F3222" stroke-linecap="round"/>
</g>
</svg>
