<svg xmlns="http://www.w3.org/2000/svg" width="32" height="32" fill="none">
    <path fill="#754f23"
        d="M0 6v2h19v15h-6.156c-.446-1.719-1.992-3-3.844-3-1.852 0-3.398 1.281-3.844 3H4v-5H2v7h3.156c.446 1.719 1.992 3 3.844 3 1.852 0 3.398-1.281 3.844-3h8.312c.446 1.719 1.992 3 3.844 3 1.852 0 3.398-1.281 3.844-3H32v-8.156l-.063-.157-2-6L29.72 10H21V6H0Zm1 4v2h9v-2H1Zm20 2h7.281L30 17.125V23h-1.156c-.446-1.719-1.992-3-3.844-3-1.852 0-3.398 1.281-3.844 3H21V12ZM2 14v2h6v-2H2Zm7 8c1.117 0 2 .883 2 2s-.883 2-2 2-2-.883-2-2 .883-2 2-2Zm16 0c1.117 0 2 .883 2 2s-.883 2-2 2-2-.883-2-2 .883-2 2-2Z" />
</svg>