<svg width="24" height="24" viewBox="0 0 24 24" fill="none" xmlns="http://www.w3.org/2000/svg">
<g clip-path="url(#clip0_1190_1442)">
<path d="M12 18.5C15.5898 18.5 18.5 15.5899 18.5 12C18.5 8.41018 15.5898 5.50003 12 5.50003C8.41015 5.50003 5.5 8.41018 5.5 12C5.5 15.5899 8.41015 18.5 12 18.5Z" stroke="#EBBD73" stroke-linejoin="round"/>
<path d="M12 3.00003C12.6904 3.00003 13.25 2.44039 13.25 1.75003C13.25 1.05968 12.6904 0.500031 12 0.500031C11.3097 0.500031 10.75 1.05968 10.75 1.75003C10.75 2.44039 11.3097 3.00003 12 3.00003Z" fill="#EBBD73"/>
<path d="M19.25 6.00003C19.9404 6.00003 20.5 5.44038 20.5 4.75003C20.5 4.05968 19.9404 3.50003 19.25 3.50003C18.5597 3.50003 18 4.05968 18 4.75003C18 5.44038 18.5597 6.00003 19.25 6.00003Z" fill="#EBBD73"/>
<path d="M22.25 13.25C22.9404 13.25 23.5 12.6904 23.5 12C23.5 11.3097 22.9404 10.75 22.25 10.75C21.5597 10.75 21 11.3097 21 12C21 12.6904 21.5597 13.25 22.25 13.25Z" fill="#EBBD73"/>
<path d="M19.25 20.5C19.9404 20.5 20.5 19.9404 20.5 19.25C20.5 18.5597 19.9404 18 19.25 18C18.5597 18 18 18.5597 18 19.25C18 19.9404 18.5597 20.5 19.25 20.5Z" fill="#EBBD73"/>
<path d="M12 23.5C12.6904 23.5 13.25 22.9404 13.25 22.25C13.25 21.5597 12.6904 21 12 21C11.3097 21 10.75 21.5597 10.75 22.25C10.75 22.9404 11.3097 23.5 12 23.5Z" fill="#EBBD73"/>
<path d="M4.75 20.5C5.44035 20.5 6 19.9404 6 19.25C6 18.5597 5.44035 18 4.75 18C4.05964 18 3.5 18.5597 3.5 19.25C3.5 19.9404 4.05964 20.5 4.75 20.5Z" fill="#EBBD73"/>
<path d="M1.75 13.25C2.44036 13.25 3 12.6904 3 12C3 11.3097 2.44036 10.75 1.75 10.75C1.05964 10.75 0.5 11.3097 0.5 12C0.5 12.6904 1.05964 13.25 1.75 13.25Z" fill="#EBBD73"/>
<path d="M4.75 6.00003C5.44035 6.00003 6 5.44038 6 4.75003C6 4.05968 5.44035 3.50003 4.75 3.50003C4.05964 3.50003 3.5 4.05968 3.5 4.75003C3.5 5.44038 4.05964 6.00003 4.75 6.00003Z" fill="#EBBD73"/>
</g>
<defs>
<clipPath id="clip0_1190_1442">
<rect width="24" height="24" fill="white"/>
</clipPath>
</defs>
</svg>
