<svg width="24" height="24" viewBox="0 0 24 24" fill="none" xmlns="http://www.w3.org/2000/svg">
    <path
        d="M22.584 0.00176571C22.3182 0.01459 22.0594 0.0959462 21.826 0.198698C21.5951 0.300763 20.2653 0.924844 18.3016 1.84801C16.3379 2.77117 13.7853 3.97333 11.2549 5.16539C6.19412 7.5495 1.22104 9.89529 1.22104 9.89529L1.25729 9.88005C1.25729 9.88005 0.957138 9.99037 0.652827 10.2235C0.500671 10.3401 0.336977 10.4906 0.202946 10.71C0.0689143 10.9294 -0.0290713 11.2403 0.00785478 11.5692C0.137556 12.7244 1.22637 13.0521 1.22637 13.0521L1.23064 13.0544L6.08978 14.8831C6.21367 15.3375 7.56358 20.2917 7.86052 21.3408C8.02452 21.9209 8.17801 22.2555 8.33812 22.4837C8.41824 22.598 8.50221 22.6864 8.59505 22.751C8.63193 22.7767 8.67073 22.796 8.70912 22.8131H8.71125C8.71596 22.8154 8.7204 22.8156 8.72511 22.8178L8.71231 22.8143C8.72123 22.8183 8.73003 22.8249 8.73897 22.8284C8.75629 22.835 8.7669 22.8348 8.78907 22.8401C9.34556 23.0537 9.8061 22.6572 9.8061 22.6572L9.82529 22.6408L12.8103 19.5966L17.6545 23.7497L17.7153 23.7802C18.5632 24.1942 19.33 23.9632 19.7547 23.5833C20.1793 23.2033 20.3463 22.7135 20.3463 22.7135L20.3645 22.6619L23.9241 2.2618C24.0151 1.80541 24.0281 1.4109 23.9422 1.05442C23.8563 0.697933 23.6476 0.388044 23.3857 0.216282C23.1238 0.0445197 22.8499 -0.0110586 22.584 0.00176571ZM22.6128 1.22204C22.7208 1.21655 22.8008 1.23012 22.826 1.24666C22.8512 1.2632 22.8626 1.26103 22.8868 1.36154C22.911 1.46205 22.9241 1.67375 22.858 2.00509L22.8559 2.01212L19.3165 22.2938C19.3081 22.3143 19.2344 22.5019 19.066 22.6525C18.8942 22.8062 18.7031 22.9262 18.1961 22.6924L12.8988 18.15L12.7495 18.0211L12.7463 18.0246L11.1621 16.7176L20.0649 5.20055C20.1333 5.11229 20.177 5.00412 20.1907 4.88913C20.2044 4.77414 20.1875 4.65725 20.142 4.5526C20.0966 4.44795 20.0245 4.36001 19.9346 4.29943C19.8447 4.23884 19.7407 4.2082 19.6353 4.2112C19.5322 4.21414 19.4321 4.24909 19.3464 4.31201L6.46397 13.7554L1.59736 11.9232C1.59736 11.9232 1.11411 11.6275 1.09098 11.4215C1.0897 11.4101 1.08399 11.4204 1.1091 11.3793C1.13422 11.3382 1.19734 11.2688 1.27648 11.2082C1.43476 11.0869 1.61549 11.0136 1.61549 11.0136L1.63361 11.0065L1.65173 10.9983C1.65173 10.9983 6.62507 8.65243 11.6856 6.26844C14.2158 5.07645 16.768 3.87518 18.7312 2.95224C20.6939 2.02954 22.1121 1.36539 22.2322 1.31231C22.3689 1.25211 22.5048 1.22754 22.6128 1.22204ZM16.7089 7.688L9.95748 16.4222L9.95428 16.4257C9.94374 16.4397 9.93378 16.4541 9.92443 16.4691C9.91372 16.4853 9.90376 16.5022 9.89458 16.5195C9.85665 16.5903 9.83234 16.6689 9.82316 16.7504C9.82315 16.752 9.82315 16.7535 9.82316 16.7551L8.94365 21.104C8.92903 21.0571 8.91879 21.0399 8.90314 20.9845V20.9833C8.62379 19.9963 7.35018 15.3241 7.17397 14.6779L16.7089 7.688ZM10.7197 17.8535L11.9329 18.8545L10.1504 20.6715L10.7197 17.8535Z"
        fill="#8C8276" />
</svg>