<svg xmlns="http://www.w3.org/2000/svg" width="70" height="19" viewBox="0 0 71 19">
    <path
        d="M12.457 10.895 6.18 9.473a3.48 3.48 0 0 1-2.621-4.16 3.475 3.475 0 1 1 5.238 3.71h-.004a.095.095 0 0 0-.035.07c0 .044.027.079.066.087l2.793.633a.173.173 0 0 0 .176-.067A6.079 6.079 0 0 0 7.309.012C7.28.008 7.109.004 7.05 0a6.916 6.916 0 0 0-4.09 1.258 6.955 6.955 0 0 0-1.703 9.683l5.582 7.98a.135.135 0 0 0 .105.056.135.135 0 0 0 .106-.055l5.484-7.828a.12.12 0 0 0 .024-.074.126.126 0 0 0-.102-.125"
        style="stroke:none;fill-rule:nonzero;fill:#fabc26;fill-opacity:1" />
    <path
        d="M17.828 3.738c.07 0 .113.024.137.067l1.86 3.18h.09l1.581-3.137c.035-.078.102-.11.192-.11h1.136c.102 0 .156.102.113.18l-3.28 5.8c-.032.067-.098.102-.188.102h-1.114c-.125 0-.136-.078-.09-.168l.88-1.507-2.63-4.262c-.046-.078-.011-.145.067-.145h1.246M24.895 3.738c.101 0 .156.055.156.157V6.28l2.508-2.453a.434.434 0 0 1 .289-.09h1.359c.102 0 .137.09.059.168l-2.664 2.5 2.832 3.246c.078.078.03.168-.07.168h-1.337c-.12 0-.21-.035-.277-.113l-2.125-2.504-.574.535v1.926c0 .102-.055.156-.156.156h-.98c-.102 0-.157-.054-.157-.156v-5.77c0-.101.055-.156.156-.156h.98M33.129 6.973c.68 0 1.07-.422 1.07-1.016 0-.578-.39-.992-1.07-.992h-1.617v2.008Zm0-3.235c1.348 0 2.363.969 2.363 2.219 0 1.297-1.015 2.246-2.363 2.246h-1.617v1.461c0 .098-.055.156-.157.156h-.98c-.102 0-.156-.058-.156-.156v-5.77c0-.101.054-.156.156-.156h2.754M41.586 3.738c.102 0 .156.055.156.157v5.77c0 .1-.054.155-.156.155h-.98c-.102 0-.157-.054-.157-.156v-4.71H37.75v4.71c0 .102-.055.156-.156.156h-.98c-.102 0-.157-.054-.157-.156v-5.77c0-.101.055-.156.156-.156h4.973M44.2 6.785c0 1.106.78 1.906 1.894 1.906 1.105 0 1.886-.8 1.886-1.906 0-1.129-.78-1.922-1.886-1.922-1.114 0-1.895.793-1.895 1.922m1.895-3.137c1.75 0 3.187 1.352 3.187 3.137 0 1.797-1.437 3.125-3.187 3.125-1.762 0-3.2-1.328-3.2-3.125 0-1.785 1.438-3.137 3.2-3.137M53.613 8.602V3.895c0-.102.055-.157.157-.157h.957c.101 0 .156.055.156.157v4.707h1.906V3.895c0-.102.055-.157.156-.157h.961c.098 0 .157.055.157.157v5.77c0 .1-.06.155-.157.155H50.59a.152.152 0 0 1-.156-.156v-5.77c0-.101.054-.156.156-.156h.96c.098 0 .157.055.157.157v4.707h1.906M64.258 3.738c.097 0 .156.055.156.157v.914c0 .101-.059.156-.156.156h-1.942v4.7c0 .1-.054.155-.156.155h-.98c-.102 0-.157-.054-.157-.156v-4.7h-1.941c-.098 0-.156-.054-.156-.155v-.914c0-.102.058-.157.156-.157h5.176M66.46 7.441h2.122l-.98-2.5h-.125Zm2.567 1.172h-3.03l-.427 1.075a.192.192 0 0 1-.187.132h-1.106c-.109 0-.144-.058-.109-.156l2.629-5.836c.023-.058.066-.09.144-.09h1.274c.078 0 .12.032.144.09l2.508 5.813c.035.09-.023.18-.12.18h-1.063c-.11 0-.188-.06-.235-.157l-.422-1.05"
        style="stroke:none;fill-rule:nonzero;fill:#2c2e2c;fill-opacity:1" />
    <path
        d="M17.371 15.035V12.43h1.715v.3h-1.371v2.305h-.344M19.93 13.727c0 .652.351 1.074.906 1.074.543 0 .898-.426.898-1.074 0-.641-.355-1.059-.906-1.059-.613 0-.898.504-.898 1.059Zm2.148-.016c0 .762-.422 1.387-1.246 1.387-.836 0-1.246-.637-1.246-1.395 0-.812.484-1.336 1.242-1.336.809 0 1.25.567 1.25 1.344M24.77 15.035h-.344V12.73h-.961l-.05 1.465c-.02.524-.208.895-.606.895a.89.89 0 0 1-.247-.05v-.294a.462.462 0 0 0 .184.035c.188 0 .324-.101.344-.765l.047-1.586h1.633v2.605M25.926 13.727c0 .652.355 1.074.906 1.074.547 0 .902-.426.902-1.074 0-.641-.355-1.059-.91-1.059-.613 0-.898.504-.898 1.059Zm2.152-.016c0 .762-.422 1.387-1.25 1.387-.832 0-1.246-.637-1.246-1.395 0-.812.488-1.336 1.242-1.336.809 0 1.254.567 1.254 1.344M29.223 14.746h.687c.348 0 .688-.023.688-.48 0-.454-.399-.45-.746-.45h-.63Zm0-1.2h.617c.293 0 .644-.023.644-.413 0-.39-.304-.41-.609-.41h-.652ZM30 12.43c.43 0 .828.172.828.652a.584.584 0 0 1-.383.559c.32.074.5.312.5.66 0 .597-.488.734-.988.734h-1.07V12.43H30M33.832 15.035h-.348v-1.219H32.11v1.22h-.343V12.43h.343v1.086h1.375V12.43h.348v2.605M35.75 12.758l-.45 1.203h.895Zm1.219 2.277h-.383l-.29-.797h-1.093l-.297.797h-.367l1.023-2.605h.391l1.016 2.605M41.207 15.035h-.344V12.73h-1.375v2.305h-.343V12.43h2.062v2.605M42.367 13.727c0 .652.356 1.074.906 1.074.547 0 .899-.426.899-1.074 0-.641-.352-1.059-.906-1.059-.614 0-.899.504-.899 1.059Zm2.153-.016c0 .762-.422 1.387-1.25 1.387-.833 0-1.247-.637-1.247-1.395 0-.812.485-1.336 1.243-1.336.808 0 1.254.567 1.254 1.344M45.328 12.43h.344v2.304h1.156V12.43h.344v2.304h1.156V12.43h.344v2.605h-3.344V12.43M51.496 12.73h-.875v2.305h-.344V12.73h-.875v-.3h2.094v.3M52.828 12.758l-.453 1.203h.895Zm1.215 2.277h-.383l-.289-.797h-1.094l-.297.797h-.363l1.024-2.605h.386l1.016 2.605M57.238 13.477l1.14 1.558h-.437l-.945-1.324-.43.41v.914h-.343V12.43h.343v1.293l1.32-1.293h.45l-1.098 1.047M59.45 13.676h.66c.335 0 .59-.09.59-.473 0-.418-.298-.476-.638-.476h-.613Zm.726-1.246c.5 0 .867.207.867.75 0 .59-.379.785-.887.785h-.707v1.07h-.344V12.43h1.07M62.566 12.758l-.449 1.203h.89Zm1.22 2.277h-.388l-.289-.797h-1.093l-.297.797h-.364l1.024-2.605h.387l1.02 2.605M65.184 12.207h-.329v-.371h.329Zm-.34 2.828H64.5V12.43h.344Zm-.352-2.828h-.328v-.371h.328v.371M67.855 15.035h-.34v-1.219h-1.378v1.22h-.344V12.43h.344v1.086h1.379V12.43h.34v2.605M68.805 12.43h.343v2.207h.008l1.278-2.207h.433v2.605h-.344V12.82h-.007l-1.282 2.215h-.43V12.43"
        style="stroke:none;fill-rule:nonzero;fill:#617171;fill-opacity:1" />
</svg>