<svg xmlns="http://www.w3.org/2000/svg" width="24" height="24" fill="none">
    <path stroke="#8C8276" stroke-linejoin="round"
        d="M5.532 5.207C8.303 5.07 10.459 5 11.999 5s3.696.07 6.47.207a3 3 0 0 1 2.84 2.747c.127 1.517.19 2.853.19 4.008 0 1.17-.065 2.524-.195 4.064a3 3 0 0 1-2.793 2.741c-2.371.155-4.542.233-6.512.233-1.97 0-4.14-.078-6.51-.233a3 3 0 0 1-2.793-2.74 48.889 48.889 0 0 1-.197-4.065c0-1.145.064-2.482.193-4.01a3 3 0 0 1 2.84-2.745Z" />
    <path stroke="#8C8276" stroke-linejoin="round"
        d="M10.5 9.805v4.398a.429.429 0 0 0 .665.358l3.299-2.18a.429.429 0 0 0 .002-.714L11.168 9.45a.429.429 0 0 0-.668.356Z" />
</svg>