<svg width="20" height="20" viewBox="0 0 20 20" fill="none" xmlns="http://www.w3.org/2000/svg">
<g id="Frame">
<path id="Vector" d="M17.6392 6.66675C16.3533 3.72357 13.4165 1.66675 9.99931 1.66675C6.5821 1.66675 3.6453 3.72357 2.35938 6.66675" stroke="#58990D" stroke-width="0.5" stroke-linecap="round" stroke-linejoin="round"/>
<path id="Vector_2" d="M10 5.83325C8.45721 7.34567 7.5 9.45329 7.5 11.7845C7.5 11.993 7.50767 12.1997 7.52271 12.4044C9.05221 13.9152 10 16.0135 10 18.3333C10 16.0135 10.9478 13.9152 12.4773 12.4044C12.4923 12.1997 12.5 11.993 12.5 11.7845C12.5 9.45329 11.5428 7.34567 10 5.83325Z" stroke="#58990D" stroke-width="0.5" stroke-linecap="round" stroke-linejoin="round"/>
<path id="Vector_3" d="M1.66602 10C1.66602 14.6024 5.39697 18.3333 9.99935 18.3333C9.99935 16.0136 9.05156 13.9153 7.52206 12.4045C6.01702 10.9178 3.94869 10 1.66602 10Z" stroke="#58990D" stroke-width="0.5" stroke-linecap="round" stroke-linejoin="round"/>
<path id="Vector_4" d="M18.3333 10C18.3333 14.6024 14.6024 18.3333 10 18.3333C10 16.0136 10.9478 13.9153 12.4773 12.4045C13.9823 10.9178 16.0507 10 18.3333 10Z" stroke="#58990D" stroke-width="0.5" stroke-linecap="round" stroke-linejoin="round"/>
</g>
</svg>
