<svg width="20" height="20" viewBox="0 0 20 20" fill="none" xmlns="http://www.w3.org/2000/svg">
<g clip-path="url(#clip0_1968_3065)">
<path d="M10.0007 15.4166C12.9922 15.4166 15.4173 12.9915 15.4173 9.99992C15.4173 7.00838 12.9922 4.58325 10.0007 4.58325C7.00911 4.58325 4.58398 7.00838 4.58398 9.99992C4.58398 12.9915 7.00911 15.4166 10.0007 15.4166Z" stroke="#EBBD73" stroke-linejoin="round"/>
<path d="M10.0007 2.50008C10.5759 2.50008 11.0423 2.03371 11.0423 1.45841C11.0423 0.883119 10.5759 0.416748 10.0007 0.416748C9.42536 0.416748 8.95898 0.883119 8.95898 1.45841C8.95898 2.03371 9.42536 2.50008 10.0007 2.50008Z" fill="#EBBD73"/>
<path d="M16.0417 5.00008C16.617 5.00008 17.0833 4.53371 17.0833 3.95841C17.0833 3.38312 16.617 2.91675 16.0417 2.91675C15.4664 2.91675 15 3.38312 15 3.95841C15 4.53371 15.4664 5.00008 16.0417 5.00008Z" fill="#EBBD73"/>
<path d="M18.5417 11.0416C19.117 11.0416 19.5833 10.5752 19.5833 9.99992C19.5833 9.42463 19.117 8.95825 18.5417 8.95825C17.9664 8.95825 17.5 9.42463 17.5 9.99992C17.5 10.5752 17.9664 11.0416 18.5417 11.0416Z" fill="#EBBD73"/>
<path d="M16.0417 17.0833C16.617 17.0833 17.0833 16.617 17.0833 16.0417C17.0833 15.4664 16.617 15 16.0417 15C15.4664 15 15 15.4664 15 16.0417C15 16.617 15.4664 17.0833 16.0417 17.0833Z" fill="#EBBD73"/>
<path d="M10.0007 19.5833C10.5759 19.5833 11.0423 19.117 11.0423 18.5417C11.0423 17.9664 10.5759 17.5 10.0007 17.5C9.42536 17.5 8.95898 17.9664 8.95898 18.5417C8.95898 19.117 9.42536 19.5833 10.0007 19.5833Z" fill="#EBBD73"/>
<path d="M3.95768 17.0833C4.53297 17.0833 4.99935 16.617 4.99935 16.0417C4.99935 15.4664 4.53297 15 3.95768 15C3.38239 15 2.91602 15.4664 2.91602 16.0417C2.91602 16.617 3.38239 17.0833 3.95768 17.0833Z" fill="#EBBD73"/>
<path d="M1.45768 11.0416C2.03298 11.0416 2.49935 10.5752 2.49935 9.99992C2.49935 9.42463 2.03298 8.95825 1.45768 8.95825C0.882386 8.95825 0.416016 9.42463 0.416016 9.99992C0.416016 10.5752 0.882386 11.0416 1.45768 11.0416Z" fill="#EBBD73"/>
<path d="M3.95768 5.00008C4.53297 5.00008 4.99935 4.53371 4.99935 3.95841C4.99935 3.38312 4.53297 2.91675 3.95768 2.91675C3.38239 2.91675 2.91602 3.38312 2.91602 3.95841C2.91602 4.53371 3.38239 5.00008 3.95768 5.00008Z" fill="#EBBD73"/>
</g>
<defs>
<clipPath id="clip0_1968_3065">
<rect width="20" height="20" fill="white"/>
</clipPath>
</defs>
</svg>
