<svg width="20" height="20" viewBox="0 0 20 20" fill="none" xmlns="http://www.w3.org/2000/svg">
<path d="M7.50065 10.8331V4.16675C7.50065 2.78604 8.61994 1.66675 10.0007 1.66675C11.3814 1.66675 12.5007 2.78604 12.5007 4.16675V10.8331C13.5127 11.5933 14.1673 12.8036 14.1673 14.1667C14.1673 16.4679 12.3018 18.3334 10.0007 18.3334C7.69948 18.3334 5.83398 16.4679 5.83398 14.1667C5.83398 12.8036 6.48861 11.5933 7.50065 10.8331Z" stroke="#E0181D" stroke-width="0.5" stroke-linejoin="round"/>
<path d="M10 7.08325V12.4999" stroke="#E0181D" stroke-width="0.5" stroke-linecap="round" stroke-linejoin="round"/>
<path d="M10.0007 15.8333C10.9211 15.8333 11.6673 15.0871 11.6673 14.1667C11.6673 13.2462 10.9211 12.5 10.0007 12.5C9.08019 12.5 8.33398 13.2462 8.33398 14.1667C8.33398 15.0871 9.08019 15.8333 10.0007 15.8333Z" stroke="#E0181D" stroke-width="0.5" stroke-linejoin="round"/>
</svg>
