<svg width="20" height="20" viewBox="0 0 20 20" fill="none" xmlns="http://www.w3.org/2000/svg">
<path d="M4.58398 17.0833C6.3204 16.3371 7.95573 15.9345 9.49007 15.8755C11.0244 15.8165 13.0002 16.0802 15.4173 16.6666" stroke="#58990D" stroke-width="0.5" stroke-linecap="round"/>
<path d="M9.60298 18.3334C9.28344 14.4 9.41598 11.3445 10.0007 9.16675" stroke="#58990D" stroke-width="0.5" stroke-linecap="round"/>
<path fill-rule="evenodd" clip-rule="evenodd" d="M10 9.6567C10.6625 7.14924 11.8291 5.65387 13.4997 5.17066C15.1703 4.68741 16.7815 4.90887 18.3333 5.83503C18.3411 7.87333 17.4563 9.36653 15.679 10.3146C13.9017 11.2627 12.0087 11.0434 10 9.6567Z" stroke="#58990D" stroke-width="0.5" stroke-linejoin="round"/>
<path fill-rule="evenodd" clip-rule="evenodd" d="M9.91264 9.21421C10.2599 6.21971 9.5641 4.11064 7.82527 2.88694C6.08639 1.66324 4.07284 1.39 1.78455 2.06722C1.38491 4.82946 1.99582 6.91817 3.61726 8.33333C5.23873 9.7485 7.33718 10.0421 9.91264 9.21421Z" stroke="#58990D" stroke-width="0.5" stroke-linejoin="round"/>
</svg>
