<svg xmlns="http://www.w3.org/2000/svg" width="66" height="15" fill="none">
    <g fill="#76A62D" clip-path="url(#a)">
        <path
            d="M37.706 1.656c-.11-.325-.253-.601-.562-.613h-.775a.637.637 0 0 0-.071-.005h-.249a.635.635 0 0 0-.07.005c-.258.039-.388.3-.485.606l-3.826 10.809c0 .143.114.258.256.258h.8c.316 0 .48-.263.574-.581l.763-2.252a.381.381 0 0 1 .36-.259h4.255c.161 0 .305.104.359.256l.794 2.277c.097.318.268.582.6.582h.835a.263.263 0 0 0 .268-.26L37.707 1.657Zm-3.121 6.69 1.93-5.687L38.5 8.345h-3.916ZM48.893 1.072c-.102-.04-.694-.035-.694-.035-.398.01-.651 0-.829.25-.027.036-.046.076-.066.115l-2.37 5.186-2.442-5.184c-.02-.039-.04-.078-.066-.115-.178-.25-.432-.242-.829-.25 0 0-.592-.004-.694.035-.244.094-.083.397.031.646L43.93 7.76a2 2 0 0 1 .207.887v3.647c0 .246.198.446.441.446h.627c.243 0 .44-.2.44-.446v-3.63c0-.308.072-.61.208-.887l3.007-6.06c.117-.25.278-.553.034-.646ZM60.342 6.714 53.153.626a.131.131 0 0 0-.18.01L51.91 1.754l5.87 4.96-5.87 4.96 1.063 1.119a.131.131 0 0 0 .18.01l7.189-6.089Z" />
        <path
            d="M65.508 6.763 58.319.675a.131.131 0 0 0-.18.01l-1.063 1.119 5.87 4.96-5.87 4.96 1.063 1.118a.131.131 0 0 0 .18.01l7.189-6.089ZM9.295 1.03h-.907a.343.343 0 0 0-.341.345v10.977c0 .2.16.364.36.364h.873c.197 0 .36-.162.36-.364V1.378a.349.349 0 0 0-.345-.348ZM6.05 11.324H2.003V1.378a.342.342 0 0 0-.342-.345H.835a.343.343 0 0 0-.34.345v10.858c0 .227.18.409.404.409h5.154c.195 0 .35-.158.35-.355v-.61a.358.358 0 0 0-.353-.356ZM30.482 1.676c-.505-.345-1.202-.59-2.535-.59h-2.58a.561.561 0 0 0-.558.565v10.486c0 .32.255.582.575.582h.443a.578.578 0 0 0 .575-.582v-3.94h2.325c.227 0 3.136-.46 3.136-3.663-.002-1.395-.709-2.395-1.381-2.858ZM28.198 6.99H26.4V2.294h1.282c.88 0 1.34.16 1.674.39.446.305.911.965.911 1.887.003 2.116-1.918 2.42-2.069 2.42ZM23.334 12.977a.9.9 0 0 0-.21-.11c-.599-.232-1.473-.846-1.96-1.163-.379-.247-.32-.441-.269-.523l.032-.04.002-.002c.829-1.027 1.309-2.49 1.309-4.338 0-3.268-1.382-5.916-5.132-5.916-3.45 0-5.108 2.648-5.108 5.916 0 3.267 1.114 6.063 5.108 6.063.811 0 1.557-.158 2.212-.463h.003c.192-.084.38-.081.638.108 1.852 1.387 2.771 1.897 3.429 1.897.317 0 .26-.985.26-.985s-.046-.249-.314-.444Zm-9.698-6.152v-.024c.005-2.218.804-4.571 3.475-4.571 3.026 0 3.49 2.353 3.492 4.57v.025c0 2.639-.846 4.644-3.492 4.644-3.04 0-3.475-2.419-3.475-4.644Z" />
    </g>
    <defs>
        <clipPath id="a">
            <path fill="#fff" d="M0 0h66v15H0z" />
        </clipPath>
    </defs>
</svg>