<?xml version="1.0" encoding="UTF-8"?>
<svg xmlns="http://www.w3.org/2000/svg" xmlns:xlink="http://www.w3.org/1999/xlink" width="70px" height="25px" viewBox="0 0 70 25" version="1.1">
<g id="surface1">
<path style=" stroke:none;fill-rule:evenodd;fill:rgb(92.941176%,10.980392%,14.117647%);fill-opacity:1;" d="M 30.640625 4.242188 L 32.113281 4.242188 C 32.652344 4.242188 32.921875 4.503906 32.921875 5.105469 L 32.921875 7.226562 L 35.804688 7.226562 L 35.804688 5.105469 C 35.804688 4.503906 36.070312 4.242188 36.675781 4.242188 L 38.085938 4.242188 L 38.085938 5.632812 L 37.484375 5.632812 L 37.414062 5.703125 L 37.414062 11.671875 L 35.804688 11.671875 L 35.804688 8.6875 L 32.921875 8.6875 L 32.921875 11.671875 L 31.3125 11.671875 L 31.3125 5.703125 C 31.3125 5.703125 31.3125 5.632812 31.242188 5.632812 L 30.640625 5.632812 Z M 42.308594 4.109375 L 42.34375 4.113281 L 42.34375 5.640625 L 42.308594 5.632812 C 41.101562 5.632812 40.160156 6.628906 40.160156 7.890625 C 40.160156 9.214844 41.101562 10.277344 42.308594 10.277344 L 42.34375 10.269531 L 42.34375 11.800781 L 42.308594 11.804688 C 40.160156 11.804688 38.417969 10.078125 38.417969 7.890625 C 38.417969 5.765625 40.160156 4.109375 42.308594 4.109375 Z M 42.308594 4.109375 "/>
<path style=" stroke:none;fill-rule:evenodd;fill:rgb(92.941176%,10.980392%,14.117647%);fill-opacity:1;" d="M 42.34375 4.113281 L 43.089844 4.183594 C 44.863281 4.53125 46.195312 6.03125 46.195312 7.890625 C 46.195312 9.804688 44.863281 11.363281 43.089844 11.722656 L 42.34375 11.800781 L 42.34375 10.269531 L 43.164062 10.09375 C 43.953125 9.730469 44.523438 8.882812 44.523438 7.890625 C 44.523438 6.945312 43.953125 6.148438 43.164062 5.8125 L 42.34375 5.640625 Z M 46.53125 4.242188 L 49.851562 4.242188 L 49.851562 5.632812 L 48.808594 5.632812 L 48.808594 7.160156 L 49.851562 7.160156 L 49.851562 8.484375 L 48.808594 8.484375 L 48.808594 10.144531 C 48.808594 10.210938 48.808594 10.210938 48.878906 10.210938 L 49.851562 10.210938 L 49.851562 11.671875 L 48.007812 11.671875 C 47.472656 11.671875 47.203125 11.40625 47.203125 10.808594 L 47.203125 5.632812 L 46.53125 5.632812 Z M 49.851562 4.242188 L 49.882812 4.242188 C 51.359375 4.242188 52.230469 5.035156 52.230469 6.234375 C 52.230469 6.960938 51.894531 7.425781 51.5625 7.757812 C 52.167969 8.023438 52.566406 8.6875 52.566406 9.414062 C 52.566406 10.808594 51.492188 11.671875 49.953125 11.671875 L 49.851562 11.671875 L 49.851562 10.210938 L 50.015625 10.210938 C 50.554688 10.210938 50.890625 9.878906 50.890625 9.347656 C 50.890625 8.820312 50.554688 8.484375 50.015625 8.484375 L 49.851562 8.484375 L 49.851562 7.160156 L 49.882812 7.160156 C 50.355469 7.160156 50.621094 6.828125 50.621094 6.367188 C 50.621094 5.898438 50.355469 5.632812 49.882812 5.632812 L 49.851562 5.632812 Z M 55.652344 4.242188 L 56.453125 4.242188 L 56.453125 6.367188 C 56.390625 6.496094 56.320312 6.695312 56.320312 6.894531 L 55.785156 8.421875 L 56.453125 8.421875 L 56.453125 9.8125 L 55.386719 9.8125 L 54.914062 11.007812 C 54.78125 11.46875 54.515625 11.671875 53.976562 11.671875 L 52.96875 11.671875 L 52.96875 10.210938 L 53.304688 10.210938 C 53.441406 10.210938 53.441406 10.210938 53.503906 10.144531 Z M 56.453125 4.242188 L 57.261719 4.242188 L 59.40625 10.144531 C 59.472656 10.210938 59.472656 10.210938 59.605469 10.210938 L 59.875 10.210938 L 59.875 11.671875 L 58.933594 11.671875 C 58.398438 11.671875 58.132812 11.46875 57.996094 10.941406 L 57.527344 9.8125 L 56.453125 9.8125 L 56.453125 8.421875 L 57.125 8.421875 L 56.589844 6.894531 C 56.589844 6.695312 56.523438 6.496094 56.453125 6.367188 Z M 30.640625 13.789062 L 36.476562 13.789062 C 37.011719 13.789062 37.347656 14.054688 37.347656 14.65625 L 37.347656 19.695312 C 37.347656 19.757812 37.347656 19.757812 37.414062 19.757812 L 37.953125 19.757812 L 37.953125 21.21875 L 36.542969 21.21875 C 35.9375 21.21875 35.671875 20.957031 35.671875 20.355469 L 35.671875 15.253906 C 35.671875 15.253906 35.671875 15.183594 35.605469 15.183594 L 32.921875 15.183594 L 32.921875 21.21875 L 31.3125 21.21875 L 31.3125 15.183594 L 30.640625 15.183594 Z M 42.175781 13.660156 L 42.207031 13.664062 L 42.207031 15.191406 L 42.175781 15.183594 C 40.964844 15.183594 40.027344 16.179688 40.027344 17.441406 C 40.027344 18.765625 40.964844 19.828125 42.175781 19.828125 L 42.207031 19.820312 L 42.207031 21.347656 L 42.175781 21.351562 C 40.027344 21.351562 38.351562 19.625 38.351562 17.441406 C 38.351562 15.316406 40.027344 13.660156 42.175781 13.660156 Z M 42.207031 13.664062 L 42.976562 13.734375 C 44.78125 14.078125 46.0625 15.582031 46.0625 17.441406 C 46.0625 19.351562 44.78125 20.914062 42.976562 21.273438 L 42.207031 21.347656 L 42.207031 19.820312 L 43.058594 19.640625 C 43.859375 19.28125 44.390625 18.433594 44.390625 17.441406 C 44.390625 16.492188 43.859375 15.699219 43.058594 15.363281 L 42.207031 15.191406 Z M 46.398438 13.789062 L 47.875 13.789062 C 48.410156 13.789062 48.675781 14.054688 48.675781 14.65625 L 48.675781 19.695312 C 48.675781 19.757812 48.675781 19.757812 48.746094 19.757812 L 50.691406 19.757812 L 50.691406 13.789062 L 52.300781 13.789062 L 52.300781 19.757812 L 54.242188 19.757812 C 54.3125 19.757812 54.3125 19.757812 54.3125 19.695312 L 54.3125 14.65625 C 54.3125 14.054688 54.578125 13.789062 55.117188 13.789062 L 56.589844 13.789062 L 56.589844 15.183594 L 55.988281 15.183594 C 55.917969 15.183594 55.917969 15.253906 55.917969 15.253906 L 55.917969 20.355469 C 55.917969 20.957031 55.652344 21.21875 55.117188 21.21875 L 47.9375 21.21875 C 47.339844 21.21875 47.066406 20.957031 47.066406 20.355469 L 47.066406 15.253906 C 47.066406 15.253906 47.066406 15.183594 47.003906 15.183594 L 46.398438 15.183594 Z M 57.863281 13.789062 L 62.890625 13.789062 C 63.496094 13.789062 63.699219 14.054688 63.699219 14.585938 L 63.699219 15.847656 L 62.222656 15.847656 L 62.222656 15.253906 C 62.222656 15.183594 62.222656 15.183594 62.152344 15.183594 L 61.21875 15.183594 L 61.21875 21.21875 L 59.605469 21.21875 L 59.605469 15.183594 L 58.667969 15.183594 C 58.601562 15.183594 58.601562 15.183594 58.601562 15.253906 L 58.601562 15.847656 L 57.125 15.847656 L 57.125 14.585938 C 57.125 14.054688 57.324219 13.789062 57.863281 13.789062 Z M 65.777344 13.789062 L 66.578125 13.789062 L 66.578125 15.914062 C 66.496094 16.078125 66.449219 16.261719 66.445312 16.445312 L 65.910156 17.972656 L 66.578125 17.972656 L 66.578125 19.363281 L 65.507812 19.363281 L 65.039062 20.488281 C 64.90625 21.019531 64.636719 21.21875 64.097656 21.21875 L 63.09375 21.21875 L 63.09375 19.757812 L 63.429688 19.757812 C 63.566406 19.757812 63.566406 19.757812 63.628906 19.695312 Z M 65.777344 13.789062 "/>
<path style=" stroke:none;fill-rule:evenodd;fill:rgb(92.941176%,10.980392%,14.117647%);fill-opacity:1;" d="M 66.578125 13.789062 L 67.382812 13.789062 L 69.53125 19.695312 C 69.597656 19.757812 69.597656 19.757812 69.734375 19.757812 L 70 19.757812 L 70 21.21875 L 69.058594 21.21875 C 68.523438 21.21875 68.257812 21.019531 68.121094 20.488281 L 67.652344 19.363281 L 66.578125 19.363281 L 66.578125 17.972656 L 67.25 17.972656 L 66.710938 16.445312 C 66.710938 16.246094 66.648438 16.046875 66.578125 15.914062 Z M 20.308594 7.402344 C 20.386719 7.378906 20.484375 7.425781 20.585938 7.558594 L 25.144531 12 C 25.410156 12.265625 25.410156 12.667969 25.144531 12.863281 L 20.585938 17.375 C 20.484375 17.507812 20.382812 17.539062 20.308594 17.496094 C 20.230469 17.457031 20.183594 17.339844 20.183594 17.171875 L 20.183594 7.691406 C 20.183594 7.527344 20.230469 7.425781 20.308594 7.402344 Z M 12.511719 0 L 12.832031 0 L 13.144531 0.128906 L 17.835938 4.769531 C 18.039062 5.035156 17.96875 5.238281 17.632812 5.238281 L 15.691406 5.238281 C 15.53125 5.234375 15.375 5.296875 15.261719 5.410156 C 15.148438 5.523438 15.085938 5.675781 15.089844 5.835938 L 15.089844 9.28125 C 15.089844 9.613281 14.816406 9.878906 14.414062 9.878906 L 11 9.878906 C 10.839844 9.878906 10.683594 9.816406 10.570312 9.707031 C 10.457031 9.59375 10.394531 9.441406 10.394531 9.28125 L 10.394531 5.835938 C 10.394531 5.675781 10.332031 5.523438 10.214844 5.410156 C 10.101562 5.296875 9.949219 5.234375 9.789062 5.238281 L 7.710938 5.238281 C 7.375 5.238281 7.308594 5.035156 7.507812 4.769531 L 12.203125 0.128906 Z M 5.160156 7.300781 C 5.246094 7.339844 5.296875 7.457031 5.296875 7.625 L 5.296875 17.304688 C 5.296875 17.472656 5.246094 17.574219 5.160156 17.605469 C 5.082031 17.636719 4.964844 17.605469 4.828125 17.507812 L 0.199219 12.863281 C -0.0664062 12.667969 -0.0664062 12.265625 0.199219 12 L 4.828125 7.425781 C 4.964844 7.292969 5.082031 7.261719 5.160156 7.300781 Z M 11 14.917969 L 14.414062 14.917969 C 14.816406 14.917969 15.089844 15.183594 15.089844 15.519531 L 15.089844 19.164062 C 15.089844 19.5625 15.355469 19.828125 15.691406 19.828125 L 17.5 19.828125 C 17.835938 19.828125 17.96875 20.023438 17.703125 20.226562 L 13.144531 24.800781 C 13.007812 24.929688 12.839844 25 12.671875 25 C 12.496094 24.996094 12.328125 24.925781 12.203125 24.800781 L 7.644531 20.226562 C 7.375 20.023438 7.507812 19.828125 7.84375 19.828125 L 9.789062 19.828125 C 10.125 19.828125 10.394531 19.5625 10.394531 19.164062 L 10.394531 15.519531 C 10.394531 15.183594 10.664062 14.917969 11 14.917969 Z M 11 14.917969 "/>
</g>
</svg>
