<svg width="20" height="20" viewBox="0 0 20 20" fill="none" xmlns="http://www.w3.org/2000/svg">
<path d="M9.99935 18.3334C14.6017 18.3334 18.3327 14.6025 18.3327 10.0001C18.3327 5.39771 14.6017 1.66675 9.99935 1.66675C5.39697 1.66675 1.66602 5.39771 1.66602 10.0001C1.66602 14.6025 5.39697 18.3334 9.99935 18.3334Z" stroke="#97C4EA"/>
<path d="M1.66602 8.68338C2.9222 8.09021 3.85129 8.00759 4.45327 8.43546C5.35627 9.07734 5.46947 11.6932 7.52331 10.443C9.57714 9.1928 6.64381 8.68338 7.2806 6.87234C7.91739 5.0613 10.0028 6.46809 10.2101 4.48434C10.3483 3.1618 8.76635 2.65577 5.46418 2.96622" stroke="#97C4EA" stroke-width="0.5"/>
<path d="M14.9992 3.33325C12.6182 5.41184 11.7867 6.66704 12.5045 7.09879C13.5812 7.74646 14.0381 6.83463 15.352 7.09879C16.6659 7.363 16.3814 9.14396 15.6903 9.14396C14.9992 9.14396 11.42 8.68817 11.6003 10.777C11.7806 12.8658 13.9335 13.175 13.9335 14.342C13.9335 15.12 13.4571 16.3108 12.5045 17.9142" stroke="#97C4EA" stroke-width="0.5" stroke-linecap="round"/>
<path d="M2.54297 13.7193C2.92276 13.5536 3.20824 13.4322 3.39943 13.355C5.00239 12.7074 6.19181 12.5547 6.9676 12.897C8.33947 13.5024 7.81206 14.725 8.24177 15.1754C8.67143 15.6258 9.74443 15.4948 9.74443 16.3516C9.74443 16.9229 9.55256 17.5682 9.16881 18.2875" stroke="#97C4EA" stroke-width="0.5" stroke-linecap="round"/>
</svg>
