<svg xmlns="http://www.w3.org/2000/svg" width="24" height="24" fill="none">
    <path fill="#8C8276"
        d="M20.063 10.5c0 2.063-.722 3.956-2.035 5.316-1.312 1.359-2.869 1.996-4.528 1.996-1.819 0-2.953-.665-3.619-1.274L8.794 21.13a.562.562 0 0 1-.544.431l-.131-.018a.554.554 0 0 1-.413-.675l3-12.75a.563.563 0 1 1 1.088.262l-1.603 6.806c.271.413 1.171 1.5 3.309 1.5 2.672 0 5.438-2.315 5.438-6.187a6.938 6.938 0 1 0-12.704 3.863.553.553 0 0 1-.15.778.553.553 0 0 1-.778-.15A7.968 7.968 0 0 1 3.938 10.5a8.063 8.063 0 1 1 16.125 0Z" />
</svg>