<svg xmlns="http://www.w3.org/2000/svg" width="28" height="21" fill="none">
    <rect width="7.8" height="7.8" x="15.1" y="13.1" fill="#E5FBCC" stroke="#5F4A32" stroke-width=".2" rx=".9" />
    <mask id="a" fill="#fff">
        <path d="m22 7-1.4 1.5-3.5 3L15 13l7-6Z" />
    </mask>
    <path fill="#5F4A32" d="m22 7-1.4 1.5-3.5 3L15 13l7-6Z" />
    <path fill="#5F4A32"
        d="m22 7 .366.341-.691-.72L22 7Zm-1.4 1.5.325.38.021-.018.02-.02L20.6 8.5ZM15 13l-.325-.38.616.787L15 13Zm2.1-1.5.29.407.019-.013.016-.014-.325-.38Zm4.534-4.841-1.4 1.5.731.682 1.4-1.5-.73-.682Zm-6.309 6.72 7-6-.65-.759-7 6 .65.76Zm4.95-5.259-3.5 3 .65.76 3.5-3-.65-.76Zm-3.466 2.973-2.1 1.5.582.814 2.1-1.5-.582-.814Z"
        mask="url(#a)" />
    <rect width="7.8" height="7.8" x="5.1" y="13.1" fill="#E5FBCC" stroke="#5F4A32" stroke-width=".2" rx=".9" />
    <mask id="b" fill="#fff">
        <path d="m12 7-1.4 1.5-3.5 3L5 13l7-6Z" />
    </mask>
    <path fill="#5F4A32" d="m12 7-1.4 1.5-3.5 3L5 13l7-6Z" />
    <path fill="#5F4A32"
        d="m12 7 .366.341-.691-.72L12 7Zm-1.4 1.5.325.38.021-.018.02-.02L10.6 8.5ZM5 13l-.325-.38.616.787L5 13Zm2.1-1.5.29.407.019-.013.016-.014-.325-.38Zm4.534-4.841-1.4 1.5.732.682 1.4-1.5-.732-.682Zm-6.309 6.72 7-6-.65-.759-7 6 .65.76Zm4.95-5.259-3.5 3 .65.76 3.5-3-.65-.76Zm-3.466 2.973-2.1 1.5.582.814 2.1-1.5-.582-.814Z"
        mask="url(#b)" />
</svg>