<svg xmlns="http://www.w3.org/2000/svg" width="133" height="133" fill="none">
    <rect width="132.8" height="132.8" x=".1" y=".1" fill="#FCF9F2" stroke="#8C8276" stroke-width=".2" rx="9.9" />
    <rect width="9.8" height="9.8" x="30.1" y="39.1" fill="#D0F7A3" stroke="#5F4A32" stroke-width=".2" rx=".9" />
    <mask id="a" fill="#fff">
        <path d="m38 30-1.6 2.25-4 4.5L30 39l8-9Z" />
    </mask>
    <path fill="#5F4A32" d="m38 30-1.6 2.25-4 4.5L30 39l8-9Z" />
    <path fill="#5F4A32"
        d="m38 30 .407.29-.78-.622L38 30Zm-1.6 2.25.374.332.018-.02.015-.022-.407-.29ZM30 39l-.374-.332.716.697L30 39Zm2.4-2.25.342.365.017-.016.015-.017-.374-.332Zm5.193-7.04-1.6 2.25.814.58 1.6-2.25-.814-.58Zm-7.22 9.622 8-9-.747-.664-8 9 .748.664Zm5.653-7.414-4 4.5.748.664 4-4.5-.748-.664Zm-3.968 4.467-2.4 2.25.684.73 2.4-2.25-.684-.73Z"
        mask="url(#a)" />
    <rect width="9.8" height="9.8" x="44.1" y="39.1" fill="#D0F7A3" stroke="#5F4A32" stroke-width=".2" rx=".9" />
    <mask id="b" fill="#fff">
        <path d="m52 30-1.6 2.25-4 4.5L44 39l8-9Z" />
    </mask>
    <path fill="#5F4A32" d="m52 30-1.6 2.25-4 4.5L44 39l8-9Z" />
    <path fill="#5F4A32"
        d="m52 30 .407.29-.78-.622L52 30Zm-1.6 2.25.374.332.018-.02.015-.022-.407-.29ZM44 39l-.374-.332.716.697L44 39Zm2.4-2.25.342.365.017-.016.015-.017-.374-.332Zm5.193-7.04-1.6 2.25.814.58 1.6-2.25-.814-.58Zm-7.22 9.622 8-9-.747-.664-8 9 .748.664Zm5.653-7.414-4 4.5.748.664 4-4.5-.748-.664Zm-3.968 4.467-2.4 2.25.684.73 2.4-2.25-.684-.73Z"
        mask="url(#b)" />
    <path stroke="#5F4A32" stroke-width=".2" d="M57 48.9h46M30 59.9h73M30 71.9h73M30 83.9h46" />
    <rect width="9.8" height="9.8" x="102.9" y="93.9" fill="#D0F7A3" stroke="#5F4A32" stroke-width=".2" rx=".9"
        transform="rotate(180 102.9 93.9)" />
    <mask id="c" fill="#fff">
        <path d="m95 103 1.6-2.25 4-4.5L103 94l-8 9Z" />
    </mask>
    <path fill="#5F4A32" d="m95 103 1.6-2.25 4-4.5L103 94l-8 9Z" />
    <path fill="#5F4A32"
        d="m95 103-.407-.29.78.622L95 103Zm1.6-2.25-.374-.332-.018.02-.016.022.408.29ZM103 94l.374.332-.716-.697L103 94Zm-2.4 2.25-.342-.365-.017.016-.015.017.374.332Zm-5.192 7.04 1.6-2.25-.816-.58-1.6 2.25.816.58Zm7.218-9.622-8 9 .748.664 8-9-.748-.664Zm-5.652 7.414 4-4.5-.748-.664-4 4.5.748.664Zm3.968-4.467 2.4-2.25-.684-.73-2.4 2.25.684.73Z"
        mask="url(#c)" />
    <rect width="9.8" height="9.8" x="88.9" y="93.9" fill="#D0F7A3" stroke="#5F4A32" stroke-width=".2" rx=".9"
        transform="rotate(180 88.9 93.9)" />
    <mask id="d" fill="#fff">
        <path d="m81 103 1.6-2.25 4-4.5L89 94l-8 9Z" />
    </mask>
    <path fill="#5F4A32" d="m81 103 1.6-2.25 4-4.5L89 94l-8 9Z" />
    <path fill="#5F4A32"
        d="m81 103-.407-.29.78.622L81 103Zm1.6-2.25-.374-.332-.018.02-.016.022.408.29ZM89 94l.374.332-.716-.697L89 94Zm-2.4 2.25-.342-.365-.017.016-.015.017.374.332Zm-5.192 7.04 1.6-2.25-.816-.58-1.6 2.25.816.58Zm7.218-9.622-8 9 .748.664 8-9-.748-.664Zm-5.652 7.414 4-4.5-.748-.664-4 4.5.748.664Zm3.968-4.467 2.4-2.25-.684-.73-2.4 2.25.684.73Z"
        mask="url(#d)" />
</svg>