<svg xmlns="http://www.w3.org/2000/svg" width="24" height="24" fill="none">
    <path stroke="#8C8276" stroke-linejoin="round"
        d="M10.678 9.57c-2.944-.142-4.99.907-6.14 3.15-1.723 3.361-.298 8.863 5.45 8.863 5.75 0 5.917-5.555 5.917-6.137V8.937c1.23.779 2.266 1.248 3.11 1.407.844.159 1.38.229 1.61.21V7.318c-.781-.094-1.456-.273-2.026-.538-.854-.397-2.548-1.499-2.548-3.113.002.008.002-.409 0-1.25h-3.559c-.01 7.909-.01 12.252 0 13.03.016 1.167-.89 2.8-2.725 2.8s-2.74-1.632-2.74-2.684a2.8 2.8 0 0 1 1.135-2.27c.542-.41 1.295-.573 2.516-.573V9.57Z" />
</svg>