<svg width="20" height="20" viewBox="0 0 20 20" fill="none" xmlns="http://www.w3.org/2000/svg">
<path d="M15 6.66659L10.8333 9.16659L9.16667 7.49992H5.83333M15 6.66659L17.5 9.16659M15 6.66659L11.6667 12.4999H2.5V7.49992H5.83333M5.83333 7.49992V3.33325M5.83333 3.33325H3.33333M5.83333 3.33325H8.33333" stroke="#97C4EA" stroke-linejoin="round"/>
<path d="M2.5 17.5L3.75 16.25C4.44035 15.5596 5.55964 15.5596 6.25 16.25L6.37377 16.3738C6.99577 16.9958 8.00423 16.9958 8.62622 16.3738L8.9377 16.0623C9.48726 15.5127 10.4022 15.6033 10.8333 16.25V16.25C11.2644 16.8967 12.1794 16.9873 12.729 16.4377L13.0404 16.1262C13.6624 15.5042 14.6709 15.5042 15.2929 16.1262L16.6667 17.5" stroke="#97C4EA" stroke-linejoin="round"/>
</svg>
